<?xml version="1.0" encoding="iso-8859-1"?>
<!-- Uploaded to: SVG Repo, www.svgrepo.com, Generator: SVG Repo Mixer Tools -->
<!DOCTYPE svg PUBLIC "-//W3C//DTD SVG 1.1//EN" "http://www.w3.org/Graphics/SVG/1.1/DTD/svg11.dtd">
<svg fill="#fff" version="1.1" id="Capa_1" xmlns="http://www.w3.org/2000/svg" xmlns:xlink="http://www.w3.org/1999/xlink"
	 viewBox="0 0 556.92 556.92"
	 xml:space="preserve">
<g>
	<g>
		<path d="M76.285,76.093c-7.95,22.114-16.87,44.342-19.657,67.849c-2.623,22.09,2.515,38.155,13.333,57.078
			c10.841,18.969,29.856,46.778,52.675,59.536V556.92h51.494V260.865c23.069-12.61,42.313-40.716,53.244-59.841
			c10.817-18.923,15.952-34.988,13.333-57.079c-2.791-23.507-11.708-45.734-19.657-67.849
			c-6.258-17.408-18.733-60.665-41.769-63.348l13.73,127.082h-17.164L162.109,12.24h-13.445h-13.446l-13.73,127.586h-17.164
			l13.73-127.082C95.019,15.429,82.546,58.685,76.285,76.093z"/>
		<path d="M426.576,556.92V265.302c42.812-13.629,74.392-60.79,74.392-116.892C500.967,81.656,456.263,0,401.116,0
			s-99.851,81.656-99.851,148.41c0,55.848,31.301,102.828,73.819,116.693V556.92H426.576z"/>
	</g>
</g>
</svg>